<svg width="24" height="24" viewBox="0 0 24 24" fill="none" xmlns="http://www.w3.org/2000/svg">
<path d="M7.0614 7.31668C7.92297 7.63543 8.59984 8.3123 8.91847 9.17363C9.00555 9.40918 9.23008 9.56551 9.48121 9.56551C9.73222 9.56551 9.95676 9.40918 10.0439 9.17387C10.3627 8.3123 11.0397 7.63543 11.9011 7.31668C12.1366 7.22949 12.2929 7.00496 12.2929 6.75395C12.2929 6.50293 12.1366 6.2784 11.9011 6.19121C11.0397 5.87246 10.3628 5.19559 10.0439 4.33402C9.95676 4.09871 9.73222 3.94238 9.48121 3.94238C9.23008 3.94238 9.00566 4.09871 8.91847 4.33426C8.59972 5.19559 7.92285 5.87246 7.0614 6.19121C6.82597 6.2784 6.66965 6.50293 6.66965 6.75395C6.66965 7.00496 6.82597 7.22949 7.0614 7.31668ZM9.48121 5.80121C9.74734 6.16637 10.0688 6.48793 10.4341 6.75395C10.0687 7.01996 9.74734 7.34129 9.48121 7.70668C9.21519 7.34129 8.89387 7.01996 8.52847 6.75395C8.89375 6.48793 9.21519 6.16637 9.48121 5.80121ZM17.3472 17.5179C16.8729 17.3423 16.5003 16.9696 16.3247 16.4953C16.2375 16.2597 16.013 16.1034 15.762 16.1034C15.5109 16.1034 15.2863 16.2597 15.1993 16.4953C15.0238 16.9696 14.6512 17.3423 14.1768 17.5179C13.9412 17.605 13.7849 17.8296 13.7849 18.0806C13.7849 18.3316 13.9412 18.5561 14.1768 18.6433C14.6512 18.8189 15.0238 19.1915 15.1993 19.6659C15.2863 19.9014 15.5109 20.0578 15.762 20.0578C16.013 20.0578 16.2375 19.9014 16.3247 19.6659C16.5003 19.1915 16.8729 18.8189 17.3472 18.6433C17.5827 18.5561 17.7391 18.3316 17.7391 18.0806C17.7391 17.8296 17.5827 17.605 17.3472 17.5179ZM15.762 18.3138C15.6887 18.2318 15.6109 18.1539 15.5288 18.0806C15.6109 18.0072 15.6887 17.9294 15.762 17.8474C15.8353 17.9294 15.9132 18.0072 15.9952 18.0806C15.9132 18.1539 15.8353 18.2318 15.762 18.3138ZM16.1883 12.8036L17.6491 11.3287C18.1586 10.814 18.1565 9.97871 17.6445 9.4666L16.0894 7.91152C15.8402 7.66215 15.5086 7.5248 15.156 7.5248C14.8034 7.5248 14.4719 7.66215 14.2227 7.91152L12.7445 9.38979C12.7441 9.3902 12.7435 9.39049 12.7431 9.3909C12.7427 9.39125 12.7425 9.39172 12.7421 9.39213L6.14594 15.9883C6.03332 16.1008 5.97015 16.2534 5.97015 16.4125V19.0249C5.97015 19.3563 6.23875 19.6249 6.57015 19.6249H9.1825C9.34258 19.6249 9.49609 19.5609 9.60883 19.447L16.1883 12.8036ZM15.0713 8.75996C15.1295 8.7016 15.183 8.70207 15.2409 8.75996L16.7959 10.315C16.8425 10.3617 16.8426 10.4376 16.7963 10.4845L15.7581 11.5329L14.02 9.81119L15.0713 8.75996ZM8.9323 18.4249H7.17015V16.661L13.1714 10.6598L14.9136 12.3855L8.9323 18.4249Z" fill="black"/>
</svg>
