<svg width="24" height="24" viewBox="0 0 24 24" fill="none" xmlns="http://www.w3.org/2000/svg">
<g clip-path="url(#clip0_79_26)">
<path d="M20 24H4C1.8 24 0 22.2 0 20V4C0 1.8 1.8 0 4 0H20C22.2 0 24 1.8 24 4V20C24 22.2 22.2 24 20 24ZM4 2C2.9 2 2 2.9 2 4V20C2 21.1 2.9 22 4 22H20C21.1 22 22 21.1 22 20V4C22 2.9 21.1 2 20 2H4Z" fill="black"/>
<path d="M8 24C7.4 24 7 23.6 7 23V1C7 0.4 7.4 0 8 0C8.6 0 9 0.4 9 1V23C9 23.6 8.6 24 8 24ZM17 13C16.7 13 16.5 12.9 16.3 12.7L13.3 9.7C12.9 9.3 12.9 8.7 13.3 8.3C13.7 7.9 14.3 7.9 14.7 8.3L17.7 11.3C18.1 11.7 18.1 12.3 17.7 12.7C17.5 12.9 17.3 13 17 13Z" fill="black"/>
<path d="M14 16C13.7 16 13.5 15.9 13.3 15.7C12.9 15.3 12.9 14.7 13.3 14.3L16.3 11.3C16.7 10.9 17.3 10.9 17.7 11.3C18.1 11.7 18.1 12.3 17.7 12.7L14.7 15.7C14.5 15.9 14.3 16 14 16Z" fill="black"/>
</g>
<defs>
<clipPath id="clip0_79_26">
<rect width="24" height="24" fill="white"/>
</clipPath>
</defs>
</svg>
